- 
http://www.Speed.Cd      fast  and The Hottest Private Tracker on the net

(((--Submit for invite!!--)))

Please Seed back to make the speed Faster!!!

------------------nfo--------------------------
-








































          
          
              
              
                    
                    
                    
                    

I.Melt.With.You.2011.HDRiP.XviD.AC3-SiC

Poster:
[IMG]http://img839.imageshack.us/img839/4356/melt.jpg[/IMG]

IMDB Link:
http://www.imdb.com/title/tt1691920/

Description:
When four 40-something college friends meet up for their annual reunion, things start to spiral out of control, and a pact they made as young men is revisited. 

MediaInfo:
General
Complete name                    : I.Melt.With.You.2011.HDRiP.XviD.AC3-SiC\I.Melt.With.You.2011.HDRiP.XviD.AC3-SiC.avi
Format                           : AVI
Format/Info                      : Audio Video Interleave
File size                        : 1.34 GiB
Duration                         : 2h 2mn
Overall bit rate                 : 1 571 Kbps

Video
ID                               : 0
Format                           : MPEG-4 Visual
Format profile                   : Advanced Simple@L5
Format settings, BVOP            : 2
Format settings, QPel            : No
Format settings, GMC             : No warppoints
Format settings, Matrix          : Default (H.263)
Muxing mode                      : Packed bitstream
Codec ID                         : XVID
Codec ID/Hint                    : XviD
Duration                         : 2h 2mn
Bit rate                         : 1 179 Kbps
Width                            : 720 pixels
Height                           : 304 pixels
Display aspect ratio             : 2.35:1
Frame rate                       : 23.976 fps
Color space                      : YUV
Chroma subsampling               : 4:2:0
Bit depth                        : 8 bits
Scan type                        : Progressive
Compression mode                 : Lossy
Bits/(Pixel*Frame)               : 0.225
Stream size                      : 1.01 GiB (75%)
Writing library                  : XviD 1.1.2 (UTC 2006-11-01)

Audio
ID                               : 1
Format                           : AC-3
Format/Info                      : Audio Coding 3
Mode extension                   : CM (complete main)
Codec ID                         : 2000
Duration                         : 2h 2mn
Bit rate mode                    : Constant
Bit rate                         : 384 Kbps
Channel(s)                       : 6 channels
Channel positions                : Front: L C R, Side: L R, LFE
Sampling rate                    : 48.0 KHz
Bit depth                        : 16 bits
Compression mode                 : Lossy
Stream size                      : 336 MiB (24%)
Alignment                        : Aligned on interleaves
Interleave, duration             : 64 ms (1.53 video frames)
Interleave, preload duration     : 448 ms
Title                            : imeltwithyou


Screenshots:
[IMG]http://img339.imageshack.us/img339/7477/scrncp00003.png[/IMG]
[IMG]http://img440.imageshack.us/img440/3330/scrncp00004.png[/IMG]
[IMG]http://img208.imageshack.us/img208/6869/scrncp00008.png[/IMG]
[IMG]http://img818.imageshack.us/img818/4189/scrncp00009.png[/IMG]
[IMG]http://img807.imageshack.us/img807/9500/scrncp00016.png[/IMG]

Note : This one was encoded from our own 720p HD wmv Digital VOD Rental, not reencoded from another encode. The HD source file also had AC3 5.1 so included that aswell. Did the usual stuff, turned out nice! 

PS: Just to clear up any confusion, most of the other encodes out there tagged HDRiP were actually from an interlaced HDTV cap, they should probably be tagged HDTV or HDTVRiP. We tagged ours as HDRiP as its encoded from a 720p progressive scan Digital VOD Rental NOT an HDTV cap!

Source: 720p wmv Digital VOD Rental / Our Own

Enjoy!

Respects to T00NG0D, ELEKTRI4KA, PA, YeFsTe, MrRep and everyone in the struggle...